<svg width="101" height="20" viewBox="0 0 101 20" fill="none" xmlns="http://www.w3.org/2000/svg">
<path d="M86.584 19.781L90.4137 13.1729L86.584 6.51471H91.465L93.5676 10.2943L95.7452 6.51471H100.601L96.5963 13.1729L100.601 19.781H95.7452L93.5676 15.9763L91.465 19.781H86.584Z" fill="#AE002C"/>
<path d="M81.5922 5.18801C80.8079 5.18801 80.1571 4.9377 79.6398 4.43709C79.1392 3.91979 78.8889 3.3107 78.8889 2.60985C78.8889 1.87561 79.1392 1.25819 79.6398 0.757573C80.1571 0.25696 80.8079 0.00665283 81.5922 0.00665283C82.3765 0.00665283 83.0273 0.25696 83.5446 0.757573C84.0619 1.25819 84.3206 1.87561 84.3206 2.60985C84.3206 3.3107 84.0619 3.91979 83.5446 4.43709C83.0273 4.9377 82.3765 5.18801 81.5922 5.18801ZM79.2143 19.7809V6.51463H83.9701V19.7809H79.2143Z" fill="#AE002C"/>
<path d="M71.3909 19.7808V0.757507H76.1467V19.7808H71.3909Z" fill="#AE002C"/>
<path d="M55.0867 19.781V1.25824H68.5031V5.41334H59.8926V9.41825H67.3767V13.3981H59.8926V19.781H55.0867Z" fill="#AE002C"/>
<path d="M32.3481 19.7809V6.51465H37.104V8.24177H37.2542C37.5879 7.67441 38.0468 7.20717 38.6309 6.84005C39.2149 6.45625 39.9491 6.26434 40.8336 6.26434C41.8348 6.26434 42.6191 6.49796 43.1864 6.9652C43.7538 7.41576 44.1626 7.94974 44.4129 8.56717H44.488C44.6883 8.25011 44.9636 7.91637 45.3141 7.56594C45.6645 7.19882 46.1067 6.89011 46.6407 6.6398C47.1747 6.3895 47.8088 6.26434 48.543 6.26434C49.4441 6.26434 50.17 6.46459 50.7207 6.86508C51.2714 7.26557 51.6719 7.76619 51.9222 8.36692C52.1892 8.95097 52.3226 9.54337 52.3226 10.1441V19.7809H47.5668V11.671C47.5668 11.2371 47.45 10.87 47.2164 10.5696C46.9828 10.2526 46.6156 10.094 46.115 10.094C45.6311 10.094 45.2723 10.2526 45.0387 10.5696C44.8218 10.87 44.7133 11.2371 44.7133 11.671V19.7809H39.9575V11.671C39.9575 11.2371 39.8407 10.87 39.6071 10.5696C39.3734 10.2526 39.0063 10.094 38.5057 10.094C38.0218 10.094 37.663 10.2526 37.4294 10.5696C37.2124 10.87 37.104 11.2371 37.104 11.671V19.7809H32.3481Z" fill="#AE002C"/>
<path d="M24.8496 19.7808V0.757507H29.6054V19.7808H24.8496Z" fill="#AE002C"/>
<path d="M19.3581 5.18801C18.5738 5.18801 17.923 4.9377 17.4057 4.43709C16.9051 3.91979 16.6548 3.3107 16.6548 2.60985C16.6548 1.87561 16.9051 1.25819 17.4057 0.757573C17.923 0.25696 18.5738 0.00665283 19.3581 0.00665283C20.1424 0.00665283 20.7932 0.25696 21.3105 0.757573C21.8278 1.25819 22.0864 1.87561 22.0864 2.60985C22.0864 3.3107 21.8278 3.91979 21.3105 4.43709C20.7932 4.9377 20.1424 5.18801 19.3581 5.18801ZM16.9802 19.7809V6.51463H21.736V19.7809H16.9802Z" fill="#AE002C"/>
<path d="M0.601074 19.781V1.25824H14.0175V5.41334H5.40697V9.41825H12.8911V13.3981H5.40697V19.781H0.601074Z" fill="#AE002C"/>
</svg>
